<svg width="155" height="155" viewBox="0 0 155 155" xmlns="http://www.w3.org/2000/svg" xmlns:xlink="http://www.w3.org/1999/xlink">
    <title>
        Page 1
    </title>
    <defs>
        <path id="a" d="M0 .813h154.187V155H0"/>
    </defs>
    <g fill="none" fill-rule="evenodd">
        <mask id="b" fill="#fff">
            <use xlink:href="#a"/>
        </mask>
        <path d="M154.183 77.194c.394 42.576-33.8 77.409-76.377 77.803C35.231 155.39.397 121.196.003 78.62-.39 36.045 33.804 1.21 76.38.817c42.576-.394 77.41 33.8 77.803 76.377" fill="#009A7C" mask="url(#b)"/>
        <g fill="#FFF">
            <path d="M26.392 43.942c.036 7.337.464 14.663.5 22 .01 1.934 3.01 1.935 3 0-.036-7.337-.464-14.663-.5-22-.01-1.934-3.01-1.935-3 0"/>
            <path d="M28.29 45.388c2.546-.719 6.334-1.498 7.225 1.814.413 1.536.306 3.551-1.37 4.17-1.638.603-3.58.476-5.297.57-1.924.104-1.934 3.105 0 3 2.5-.136 5.245-.023 7.487-1.308 2.204-1.263 2.53-4.082 2.22-6.355-.79-5.769-6.47-6.08-11.063-4.784-1.858.525-1.068 3.42.798 2.893m12.102-1.446c.035 7.337.463 14.663.5 22 .01 1.934 3.01 1.935 3 0-.037-7.337-.465-14.663-.5-22-.01-1.934-3.01-1.935-3 0"/>
            <path d="M42.29 45.388c2.546-.719 6.334-1.498 7.225 1.814.413 1.536.306 3.551-1.37 4.17-1.638.603-3.58.476-5.297.57-1.924.104-1.934 3.105 0 3 2.5-.136 5.245-.023 7.487-1.308 2.204-1.263 2.53-4.082 2.22-6.355-.79-5.769-6.47-6.08-11.063-4.784-1.858.525-1.068 3.42.798 2.893"/>
            <path d="M42.846 54.949a702.655 702.655 0 0 0 8.008 12c1.086 1.585 3.687.087 2.591-1.514a702.709 702.709 0 0 1-8.009-12c-1.055-1.611-3.653-.11-2.59 1.514m19.635 9.394c-2.604 2.786-4.79-7.832-4.856-8.733-.202-2.7-.224-9.475 3.187-10.446.095.01.193.015.3.007 4.855-.375 3.69 16.69 1.37 19.172m4.913-10.292c-.129-3.595-.976-12.29-6.283-11.88a1.788 1.788 0 0 0-.284.05 1.537 1.537 0 0 0-.7.01c-8.794 2.101-7.538 26.22 2.35 25.25 5.205-.51 5.043-9.905 4.917-13.43m2.683-10.06c.104 7.336.599 14.658.703 21.994.028 1.933 3.028 1.936 3 0-.104-7.336-.6-14.658-.703-21.994-.027-1.933-3.027-1.936-3 0"/>
            <path d="M71.976 45.438c2.527-.74 6.33-1.57 7.251 1.73.424 1.52.355 3.558-1.314 4.19-1.634.62-3.575.515-5.29.624-1.922.122-1.934 3.123 0 3 2.494-.158 5.248-.066 7.475-1.37 2.192-1.282 2.51-4.092 2.176-6.368-.843-5.761-6.507-6.04-11.096-4.7-1.852.543-1.063 3.438.798 2.894"/>
            <path d="M72.08 56.594c3.558-1.08 8.017-1.749 8.98 2.822.404 1.922.207 4.317-1.829 5.121-1.939.766-4.268.641-6.314.776-1.92.126-1.933 3.127 0 3 2.891-.19 6.124-.073 8.684-1.633 2.514-1.533 2.823-4.86 2.435-7.495-.988-6.705-7.35-7.125-12.755-5.484-1.845.561-1.058 3.457.798 2.893m13.998-12.751c.104 7.336.599 14.658.703 21.994.028 1.933 3.028 1.936 3 0-.104-7.336-.6-14.658-.703-21.994-.027-1.933-3.027-1.936-3 0"/>
            <path d="M89.03 67.248c2.78-.05 5.549-.361 8.33-.41 1.932-.035 1.936-3.035 0-3-2.781.049-5.55.36-8.33.41-1.932.035-1.936 3.035 0 3m11.3-23.161l.195 21.07c.018 1.933 3.018 1.934 3 0l-.195-21.07c-.018-1.934-3.018-1.935-3 0"/>
            <path d="M103.066 55.557l4.575-.042c1.934-.018 1.935-3.018 0-3l-4.575.042c-1.934.018-1.935 3.018 0 3m-.948-9.695l9.15-.085c1.934-.018 1.935-3.018 0-3l-9.15.085c-1.934.018-1.935 3.018 0 3m.192 20.792l9.15-.085c1.935-.018 1.936-3.018 0-3l-9.15.085c-1.933.018-1.934 3.018 0 3m26.44-23.196c-.309-1.426-2.622-1.225-2.892.222-.67 3.605-1.414 7.035-2.563 10.707-1.405-3.668-2.24-7.117-3.508-10.663-.6-1.68-2.746-1.32-2.944.329-.87 7.255-1.93 14.454-2.28 21.759-.093 1.934 2.907 1.87 3-.053.238-4.963.804-9.906 1.415-14.841.85 2.742 1.776 5.452 3.175 7.983.502.908 2.15 1.253 2.592.203 1.072-2.542 1.887-5.097 2.561-7.703.986 4.79 1.812 9.628 2.077 14.625.102 1.926 3.1 1.678 2.998-.256-.402-7.59-2.03-14.893-3.632-22.312"/>
        </g>
        <path d="M39.734 84.26c27.046.256 54.093.35 81.14.479 1.935.009 1.934-2.991 0-3-27.047-.13-54.094-.223-81.14-.478-1.935-.018-1.934 2.982 0 3m-2.078 8.86c28.719-.545 57.47-.252 86.196-.514 1.933-.018 1.935-3.018 0-3-28.725.262-57.477-.03-86.196.514-1.932.037-1.936 3.037 0 3m4.711 8.326c11.95.785 24.209-.092 36.19-.121 13.58-.034 27.16-.1 40.739-.213 1.934-.016 1.936-3.016 0-3-12.916.107-25.832.171-38.748.207-12.638.037-25.576.955-38.181.127-1.932-.127-1.92 2.874 0 3m.089 9.658c11.951.785 24.21-.092 36.191-.121 13.58-.034 27.16-.1 40.738-.213 1.934-.016 1.936-3.016 0-3-12.916.107-25.832.17-38.748.207-12.638.037-25.576.955-38.18.127-1.933-.127-1.92 2.874 0 3M18.956 86.417l4.111-7.376 1.98 7.855-6.091-.479z" fill="#FFF"/>
        <path d="M19.01 87.8l-4.864 34.587a77.338 77.338 0 0 0 5.498 6.913l5.71-40.609-6.344-.892z" fill="#505260"/>
    </g>
</svg>
